<svg version="1.0" xmlns="http://www.w3.org/2000/svg" width="933.333" height="933.333" viewBox="0 0 700 700"><path d="M105 2C86.3 6 70 13.2 55.1 23.8 27.5 43.5 7.5 74.9 2.3 106.5c-.3 1.6-.8 5-1.3 7.5-.9 4.7-.6 32.8.4 37 .3 1.4 1.1 4.9 1.7 7.8 2.8 13.5 11.6 34.1 19.6 45.5 20.5 29.4 50.4 48.8 85 55.2l8.9 1.6v199.2c.1 183.1.2 199.5 1.7 202.4 5.6 10.7 20.5 10.6 25.7-.2 1.2-2.5 2.1-5.7 2-7.2-.1-1.6-.2-5.3-.1-8.3l.1-5.5h43.5c38 0 43.5.2 43.6 1.5 0 .8.2 11.6.2 24 .2 21.5.3 22.7 2.5 26.1 4.6 7.5-15.1 6.9 231.2 6.9 142.7 0 221.8-.3 223.5-1 3.5-1.3 7.2-4.9 8.4-8.3 1.4-3.7 1.5-442.7.1-447.6-1.1-3.9-5.2-7.8-9.5-9-1.6-.4-13-.8-25.3-.7-14.1.1-22.2-.3-22.3-.9 0-.6-.2-11.4-.3-24-.1-26-.6-27.9-7.8-31.6-3.4-1.8-6.2-1.9-36-1.9-36.5 0-37.3.1-41.5 7.5-2 3.6-2.1 5.2-2.2 26.8-.1 12.7-.3 23.2-.5 23.4-.2.3-70.1.5-155.3.6l-155 .2-3.7 2.9c-2.1 1.6-4.3 4.1-5 5.7-.9 2.2-1.2 45.5-1.2 186.4.1 100.9-.1 183.6-.4 183.6-.3.1-20 .2-43.7.3l-43.3.1v-16c-.2-96.1 0-334.8.3-335.1.2-.2 4.1-1.1 8.8-1.9 40.5-7.5 75.2-33.8 93.8-71.1C272 141.9 265.1 85.9 231.4 46c-8.3-9.8-12.4-13.7-20.9-19.9-3.8-2.8-7.4-5.5-8-5.9-3.6-2.8-17.8-9.7-26-12.7-16.4-6-24.6-7.3-45-7.3-13.7 0-20 .4-26.5 1.8zm35 59c4 2.8 7 9.1 6.3 13.4-.7 4.4-4 9.4-7.4 11.2-1.7.8-6.2 1.7-10.2 2.1-14.4 1.1-25.9 7.8-33.8 19.8-4.5 6.7-6.6 13.2-7.3 22.3-.9 10.8-6.2 16.5-15.1 16.4-8.2-.2-13.4-5.8-13.9-14.8-1.2-24.9 14.5-51.5 37.9-64.1 15.7-8.5 36.3-11.4 43.5-6.3zm472.5 405.7v145.8h-291l-.3-145.8L321 321h291.5v145.7z"/><path d="M455.9 350.4c-.2.2-3.1.7-6.4 1-23.9 2.7-49.9 16.4-68.1 35.9-15.2 16.4-23.5 32.6-29.5 57.7-.9 3.5-1.3 11.6-1.3 22 0 17.4 1.6 26.8 6.6 40 13.3 35.1 42.6 62 77.9 71.9 9.6 2.6 12.6 3.1 23.4 3.9 50.3 3.7 97.6-26 116.5-73.2 2.8-6.9 6.1-19.3 7.4-27.6.6-3.8.7-25 .2-29-3.4-23.9-12.5-44.7-27-61.5-22.5-26.2-51.2-40-85.7-41.1-7.4-.3-13.7-.3-14 0zm17.7 59.4c3.4 1.4 7.1 6.5 7.9 10.7.9 4.5-1.5 10.4-5.5 13.6-2.7 2.2-5 3-10 3.4-16.2 1.6-27 12.2-28.4 27.7-.9 10.4-4.6 15-13.4 16.4-4.9.8-10.9-2.2-13.7-6.8-2-3.4-2.6-12.3-1.2-18.3.5-2.2 1-4.7 1.2-5.5 2.5-11.8 14.4-27.3 26.3-34.3 12.4-7.3 28.6-10.3 36.8-6.9z"/></svg>